# xmcd
#
# Track frame offsets: 
#        150
#        20586
#        40374
#        68595
#        89567
#        117016
#        143857
#        166045
#        186262
#        207544
#        224730
#        241361
#        269995
#
# Disc length: 3937 seconds
#
# Revision: 2
# Processed by: cddbd v1.5.2PL0 Copyright (c) Steve Scherf et al.
# Submitted via: ExactAudioCopyFreeDBPlugin 1.0
#
DISCID=cc0f5f0d
DTITLE=Various Artist - TETSUYA KOMURO THE GREATEST HITS S MHCL 724
DYEAR=2006
DGENRE=JPop
TTITLE0=華原朋美 - I'm proud (Radio Edit)
TTITLE1=渡辺美里 - My Revolution
TTITLE2=globe - FACE
TTITLE3=TM NETWORK - Self Control 方舟に曳かれて
TTITLE4=TRF - CRAZY GONNA CRAZY
TTITLE5=H Jungle with t - WOW WAR TONIGHT 時には起こせよムーヴメント
TTITLE6=鈴木あみ - love the island
TTITLE7=篠原涼子 - Lady Generation (Original Mix)
TTITLE8=電気グルーヴ - RHYTHM RED BEAT BLACK (VERSION 300000000000)
TTITLE9=松田聖子 - Kimono Beat
TTITLE10=中山美穂 - 50／50 フィフティー・フィフティー
TTITLE11=TMN - Nights of The Knife
TTITLE12=安室奈美恵 - SWEET 19 BLUES
EXTD=YEAR: 2006
EXTT0=
EXTT1=
EXTT2=
EXTT3=
EXTT4=
EXTT5=
EXTT6=
EXTT7=
EXTT8=
EXTT9=
EXTT10=
EXTT11=
EXTT12=
PLAYORDER=
